<svg width="22" height="22" viewBox="0 0 22 22" fill="none" xmlns="http://www.w3.org/2000/svg">
<path d="M5.78277 1.84912C2.34311 3.59123 0.141724 7.12129 0.141724 10.8806C0.141724 18.2158 6.60829 23.167 13.5793 21.1498C21.3301 18.9034 23.6232 8.95509 17.7069 3.36201C14.68 0.473778 9.81864 -0.122206 5.78277 1.84912ZM14.8176 2.99525C16.8814 4.04968 17.019 4.3706 15.8725 5.37919C15.0928 6.06686 12.3411 7.57974 11.8824 7.57974C11.7907 7.57974 11.2862 6.89207 10.7817 6.06686C10.2773 5.19581 9.54347 3.95799 9.08485 3.31616L8.30519 2.07835H10.6442C12.1118 2.07835 13.7169 2.44511 14.8176 2.99525ZM8.58037 5.37919C9.45175 6.70869 10.0021 7.9465 9.81864 8.17573C9.40588 8.58833 2.06794 9.68861 1.7469 9.32185C0.921381 8.49664 5.00312 2.99525 6.42484 2.99525C6.74588 2.99525 7.70898 4.09553 8.58037 5.37919ZM18.9452 7.21298C19.4497 8.31326 19.8625 9.59692 19.8625 10.1012C19.8625 10.9723 19.6332 11.0181 16.5604 10.8806C14.7259 10.7889 13.1666 10.6514 13.1666 10.6055C13.1207 10.6055 12.9373 10.1012 12.7997 9.50523C12.5704 8.81756 12.6621 8.49664 13.0749 8.49664C13.3959 8.49664 14.5883 7.76312 15.7349 6.89207C16.8814 6.06686 17.8445 5.33334 17.9363 5.33334C18.028 5.2875 18.4866 6.15855 18.9452 7.21298ZM11.3321 10.1471C11.699 11.064 11.8366 10.9264 9.54347 12.0725C8.48864 12.5768 6.79174 13.9522 5.73691 15.0983C4.68208 16.2444 3.71897 17.2072 3.58139 17.2072C3.0769 17.2072 1.51759 13.4479 1.51759 12.2559C1.51759 10.9264 1.56345 10.8806 4.49863 10.5597C6.10381 10.4221 8.03002 10.1012 8.71795 9.87199C10.6442 9.32185 11.0111 9.32185 11.3321 10.1471ZM19.4956 12.531C20 13.0353 18.3031 16.382 16.9273 17.6198C16.2852 18.2616 15.689 18.6742 15.5973 18.5367C15.5514 18.445 15.1387 17.0238 14.7259 15.3734C14.1756 13.1728 14.1297 12.3018 14.4966 12.0267C15.0928 11.6599 18.9911 12.0267 19.4956 12.531ZM13.2583 15.2358C13.6252 16.7029 14.0838 18.2616 14.1756 18.6742C14.6342 20.2788 10.6442 20.9206 7.52554 19.7745C5.1407 18.9034 4.72794 17.9865 6.10381 16.4737C7.43381 15.0525 11.0569 12.6227 11.9283 12.6227C12.2493 12.6227 12.8455 13.8147 13.2583 15.2358Z" fill="white"/>
</svg>
