<svg width="22" height="20" viewBox="0 0 22 20" fill="none" xmlns="http://www.w3.org/2000/svg">
<path d="M11.1036 4.62731C5.67748 6.83121 1.19045 8.66567 1.13329 8.70389C0.986308 8.80581 0.896486 9.02237 0.896486 9.28141C0.896486 9.72303 0.761753 9.63386 3.75855 11.1923C6.22866 12.479 6.46546 12.5936 6.65327 12.5936C6.76759 12.5936 6.91049 12.5681 6.97174 12.5342C7.03706 12.5002 8.02102 11.9057 9.16421 11.2135C10.3115 10.5214 11.2056 9.99905 11.1566 10.0543C11.1036 10.1052 10.536 10.636 9.89096 11.2348C9.24587 11.8293 8.68244 12.3728 8.63753 12.4365C8.55179 12.5554 8.55179 12.5936 8.55179 15.8761V19.1968L8.64161 19.3455C8.77226 19.562 8.95599 19.6597 9.23362 19.6639C9.4051 19.6639 9.49901 19.6385 9.58066 19.5748C9.67048 19.5068 11.7691 16.6702 11.916 16.4197C11.9446 16.373 12.553 16.7169 14.6924 17.9866C16.1989 18.8783 17.4932 19.63 17.5708 19.6512C17.8606 19.7446 18.1995 19.5833 18.3302 19.2945C18.4322 19.0609 21.8006 1.56988 21.8006 1.27688C21.8006 0.89045 21.5229 0.614431 21.1392 0.622925C21.0085 0.622925 18.5833 1.59111 11.1036 4.62731ZM18.7548 10.1349C17.9382 14.3686 17.2605 17.838 17.2523 17.8465C17.2441 17.855 16.1091 17.1968 14.7291 16.3814C13.3532 15.5661 12.1692 14.8655 12.0957 14.8272C11.9038 14.7253 11.5935 14.7381 11.4261 14.857C11.3485 14.9079 10.9933 15.3581 10.634 15.8506C10.2747 16.3475 9.95628 16.7764 9.93179 16.8061C9.89096 16.8486 9.87871 16.4834 9.87871 14.9929L9.88279 13.1244L13.6431 9.66358C15.709 7.76118 17.436 6.14329 17.4769 6.07535C17.5871 5.89275 17.5789 5.55304 17.4605 5.37044C17.3135 5.14538 17.1257 5.03497 16.8848 5.03497C16.6848 5.03497 16.5092 5.13689 11.6588 8.07117L6.64103 11.1074L4.92624 10.2284L3.21145 9.3451L11.6997 5.897C16.3704 4.00309 20.2001 2.44889 20.2123 2.44889C20.2287 2.44465 19.5713 5.90549 18.7548 10.1349Z" fill="white"/>
</svg>
