<svg width="22" height="22" viewBox="0 0 22 22" fill="none" xmlns="http://www.w3.org/2000/svg">
<path d="M5.82304 1.862C1.24522 4.29852 -0.794896 9.91743 1.09594 14.8899C1.84233 16.7297 1.84233 17.3762 1.34474 19.0668C0.996426 20.2105 0.847149 21.2547 0.996426 21.4039C1.1457 21.5531 2.14088 21.3044 3.13606 20.9066C4.7781 20.2105 5.22593 20.2105 7.21629 20.8569C8.41051 21.2547 9.95303 21.6028 10.6994 21.6028C16.1729 21.6028 21.2981 16.5806 21.2981 11.1606C21.2981 3.40347 12.6898 -1.71819 5.82304 1.862ZM14.6304 2.6576C18.1633 4.2488 20.8005 9.12184 20.0043 12.5031C18.6111 18.5198 12.0927 22.0503 7.06702 19.5641C6.17135 19.0668 5.17618 18.9176 4.57907 19.1663C2.78775 19.8624 2.43943 19.7132 2.83751 18.2215C3.0863 17.3264 2.93702 16.2325 2.33992 14.8899C0.200283 10.1661 2.2404 4.89522 7.11677 2.6576C9.65448 1.4642 12.0429 1.4642 14.6304 2.6576Z" fill="white"/>
<path d="M5.72472 6.03791C5.52568 6.18708 5.3764 7.18158 5.3764 8.17608C5.3764 12.8502 12.8402 18.5189 15.5272 15.8834C16.6717 14.69 16.3234 13.4966 14.6813 12.9497C13.6364 12.5519 13.1886 12.6016 12.89 13.0988C12.2929 14.0436 10.6509 13.3475 9.15808 11.6071C8.11314 10.364 7.96387 9.96618 8.46146 9.17058C9.60591 7.38048 7.16773 4.54616 5.72472 6.03791Z" fill="white"/>
</svg>
