<svg width="520" height="331" viewBox="0 0 520 331" fill="none" xmlns="http://www.w3.org/2000/svg">
<path d="M264.055 330.632C198.782 330.632 145.865 254.729 145.865 161.095V0C211.138 0 264.055 75.9031 264.055 169.534V330.632Z" fill="white"/>
<path d="M124.922 330.632C55.9308 330.632 0 254.729 0 161.095V0C68.9913 0 124.922 75.9031 124.922 169.534V330.632Z" fill="#9DFF50"/>
<path d="M278.411 193.443V107.936C278.411 48.3263 326.258 0 385.283 0V85.5072C385.281 145.12 337.433 193.443 278.411 193.443Z" fill="#9DFF50"/>
<path d="M520.001 330.426H397.442C331.705 330.426 278.411 276.605 278.411 210.211H400.97C466.707 210.211 520.001 264.035 520.001 330.426Z" fill="white"/>
</svg>
