<svg width="13" height="14" viewBox="0 0 13 14" fill="none" xmlns="http://www.w3.org/2000/svg">
<mask id="mask0_11_2404" style="mask-type:luminance" maskUnits="userSpaceOnUse" x="0" y="0" width="13" height="14">
<path d="M12.7868 0.684814H0.291016V13.0268H12.7868V0.684814Z" fill="white"/>
</mask>
<g mask="url(#mask0_11_2404)">
<path d="M12.0199 3.38526V6.47018C12.02 6.54643 11.9972 6.62169 11.9543 6.68508C11.9114 6.74846 11.8503 6.79798 11.7789 6.8267C11.7075 6.85641 11.629 6.86335 11.5532 6.84849C11.4774 6.83364 11.4078 6.79699 11.3532 6.74351L10.0675 5.4729L7.21988 8.28547C7.18359 8.32211 7.14047 8.34985 7.09314 8.36965C7.04572 8.38946 6.99488 8.39936 6.94354 8.39936C6.8922 8.39936 6.84147 8.38946 6.79404 8.36965C6.74661 8.34985 6.7036 8.32211 6.6673 8.28547L4.99111 6.62962L1.75292 9.82843C1.67963 9.90073 1.58026 9.94133 1.47668 9.94133C1.37301 9.94133 1.27364 9.90073 1.20034 9.82843C1.12715 9.75614 1.08594 9.65809 1.08594 9.55608C1.08594 9.45308 1.12715 9.35504 1.20034 9.28275L4.71486 5.81161C4.75106 5.77595 4.79418 5.74723 4.8416 5.72842C4.88893 5.70861 4.93977 5.69869 4.99111 5.69869C5.04244 5.69869 5.09318 5.70861 5.14061 5.72842C5.18804 5.74723 5.23115 5.77595 5.26735 5.81161L6.94354 7.46746L9.51544 4.92723L8.22929 3.65761C8.17454 3.60413 8.13734 3.5348 8.1222 3.46053C8.10716 3.38526 8.11488 3.30801 8.14446 3.23769C8.17404 3.16639 8.22418 3.10599 8.28845 3.0644C8.35272 3.02181 8.42822 2.99902 8.50553 2.99902H11.6295C11.7331 2.99902 11.8323 3.03963 11.9055 3.11192C11.9788 3.18422 12.0199 3.28226 12.0199 3.38526Z" fill="#9DFF50"/>
</g>
</svg>
