<svg width="48" height="49" viewBox="0 0 48 49" fill="none" xmlns="http://www.w3.org/2000/svg">
<path d="M16.2395 24.1386H6.87492C7.03465 14.814 8.87163 13.2765 14.6022 9.88208C15.2611 9.48274 15.4808 8.64412 15.0814 7.96524C14.9894 7.80805 14.8671 7.67075 14.7215 7.56134C14.5759 7.45194 14.41 7.37262 14.2334 7.32801C14.0569 7.2834 13.8732 7.2744 13.6931 7.30153C13.513 7.32866 13.3401 7.39138 13.1845 7.48602C6.43564 11.4795 4.07951 13.9154 4.07951 25.5164V36.2787C4.07951 39.693 6.85495 42.4485 10.2494 42.4485H16.2395C19.7537 42.4485 22.4094 39.7929 22.4094 36.2787V30.2885C22.4094 26.7943 19.7537 24.1386 16.2395 24.1386ZM37.842 24.1386H28.4774C28.6371 14.814 30.4741 13.2765 36.2047 9.88208C36.8636 9.48274 37.0832 8.64412 36.6839 7.96524C36.5898 7.80757 36.4655 7.67004 36.3181 7.56056C36.1707 7.45107 36.0032 7.37179 35.825 7.32726C35.6469 7.28273 35.4618 7.27383 35.2802 7.30108C35.0986 7.32832 34.9242 7.39118 34.767 7.48602C28.0181 11.4795 25.662 13.9154 25.662 25.5363V36.2986C25.662 39.713 28.4374 42.4685 31.8319 42.4685H37.822C41.3362 42.4685 43.9919 39.8128 43.9919 36.2986V30.3085C44.0118 26.7943 41.3562 24.1386 37.842 24.1386Z" fill="#444444"/>
</svg>
