<svg width="22" height="22" viewBox="0 0 22 22" fill="none" xmlns="http://www.w3.org/2000/svg">
<path d="M4.64374 1.18893C3.84514 1.43726 2.59734 2.2319 1.89857 2.97689C0.80051 4.16886 0.700686 4.66551 0.55095 10.377C0.251477 20.4095 1.34954 21.5518 10.9327 21.5518C20.4159 21.5518 21.4142 20.5584 21.4142 11.271C21.4142 4.91384 21.0648 3.6722 18.7688 1.98358C17.571 1.0896 16.5727 0.940603 11.7812 0.841272C8.68661 0.791607 5.49224 0.940603 4.64374 1.18893ZM18.2198 3.8212C19.4676 4.91384 19.5674 5.31116 19.817 9.97971C20.0666 15.2939 19.4676 18.2242 17.9703 19.0188C16.5727 19.8135 11.1822 20.2108 7.68837 19.8135C2.64726 19.3168 2.44761 18.9195 2.44761 11.3703C2.44761 5.41049 2.49752 5.06283 3.69541 3.92053C4.84339 2.72856 5.19277 2.67889 10.8827 2.67889C16.423 2.67889 16.972 2.77822 18.2198 3.8212Z" fill="white"/>
<path d="M15.6734 5.16075C15.4737 5.5084 15.5236 5.95539 15.8231 6.25339C16.5219 6.9487 18.0692 6.35272 17.8196 5.5084C17.5201 4.71376 16.1226 4.46543 15.6734 5.16075Z" fill="white"/>
<path d="M7.33763 7.49602C5.59071 9.33364 5.19142 11.0719 6.08983 13.2572C7.33763 16.1875 10.532 17.3298 13.4269 15.8398C16.6213 14.2009 17.2202 9.78063 14.5749 7.34702C12.6782 5.55907 9.08456 5.6584 7.33763 7.49602ZM13.2772 8.73766C15.5731 10.8733 14.0758 14.5982 10.9313 14.5982C7.68702 14.5982 6.23957 10.6746 8.73517 8.68799C10.4322 7.34702 11.8297 7.34702 13.2772 8.73766Z" fill="white"/>
</svg>
